<svg xmlns="http://www.w3.org/2000/svg" width="120" height="120" style="shape-rendering:geometricPrecision;text-rendering:geometricPrecision;image-rendering:optimizeQuality;fill-rule:evenodd;clip-rule:evenodd">
<path fill="#8c8c8c" d="M51.5 23.5h16c-.167 12.671 0 25.338.5 38A203.814 203.814 0 0 0 84.5 44a54.56 54.56 0 0 1 18 .5 495.325 495.325 0 0 0-18 19.5 1428.286 1428.286 0 0 0 19 30.5 45.626 45.626 0 0 1-19 0c-3.33-6.666-7.164-13-11.5-19-5.167 5.561-7 12.228-5.5 20h-16v-72Z" style="opacity:.996"/><path fill="#8c8c8c" d="M45.5 42.5c1.942 4.556 2.608 9.556 2 15-6.924-.622-12.09 2.045-15.5 8a167.91 167.91 0 0 0-1.5 30h-15v-52h15a32.437 32.437 0 0 0 .5 8c3.47-5.323 8.304-8.323 14.5-9Z"/></svg>